#N canvas 126 165 820 773 12;
#X declare -path ./lib;
#X obj 127 675 dac~ 2;
#N canvas 970 146 499 437 init 0;
#X obj 55 44 loadbang;
#X msg 55 342 \; pd dsp 1 \;;
#X obj 246 366 declare -path ./lib;
#X obj 55 68 t b b b;
#X msg 168 127 \; previous-player-level-set -100 \; previous-player-monitor-level-set
-100 \; local-mic-level-set -100 \;;
#X msg 108 227 \; delay-lfo-depth-set 25 \; delay-lfo-rate-set 5 \;
delay-lfo-switch-set 0 \; delay-deltime-set 100 \;;
#X connect 0 0 3 0;
#X connect 3 0 1 0;
#X connect 3 1 5 0;
#X connect 3 2 4 0;
#X restore 734 715 pd init;
#X obj 47 115 vumeter;
#N canvas 724 610 592 387 variable-delay 0;
#X obj 23 36 inlet~;
#X obj 23 306 outlet~;
#N canvas 1028 167 498 300 delay-write 0;
#X msg 84 115 clear;
#X obj 41 46 inlet~;
#X obj 41 236 outlet~;
#X obj 41 151 delwrite~ \$0-quasi-delay 5000;
#X obj 84 90 r delay-clear;
#X connect 0 0 3 0;
#X connect 1 0 3 0;
#X connect 4 0 0 0;
#X restore 23 109 pd delay-write;
#N canvas 828 67 803 552 delay-read 0;
#X obj 360 15 inlet~;
#X obj 440 486 outlet~;
#X obj 440 79 r delay-deltime;
#X obj 440 103 pack f 1000;
#X obj 440 127 line~;
#X obj 524 182 osc~;
#X obj 524 246 *~;
#X obj 574 158 r delay-lfo-depth;
#X obj 574 266 line~;
#X obj 584 92 pack f 40;
#X obj 584 116 line~;
#X obj 440 251 +~;
#X obj 216 238 snapshot~;
#X obj 184 70 r delay-lfo-switch;
#X obj 216 174 metro 10;
#X obj 216 262 + 0.5;
#X obj 216 286 i;
#X obj 184 114 t f f;
#X obj 64 416 i;
#X obj 64 480 s delay-deltime-set;
#X msg 105 222 0;
#X obj 104 416 r delay-deltime;
#X obj 64 168 select 0 1;
#X obj 654 8 r delay-lfo-rate;
#X obj 584 48 f;
#X obj 216 376 s delay-deltime-set;
#X msg 216 310 set \$1;
#X obj 440 426 delread4~ \$0-quasi-delay;
#X obj 440 201 +~;
#X obj 64 192 t b b b;
#X msg 155 222 0;
#X obj 654 32 / 100;
#X obj 654 55 * 2;
#X obj 574 182 / 100;
#X obj 574 206 *;
#X obj 634 186 r delay-deltime;
#X obj 634 210 t b f;
#X obj 574 242 pack f 1000;
#X connect 2 0 3 0;
#X connect 3 0 4 0;
#X connect 4 0 28 0;
#X connect 5 0 6 0;
#X connect 6 0 11 1;
#X connect 7 0 33 0;
#X connect 8 0 6 1;
#X connect 8 0 28 1;
#X connect 9 0 10 0;
#X connect 10 0 5 0;
#X connect 11 0 12 0;
#X connect 11 0 27 0;
#X connect 12 0 15 0;
#X connect 13 0 17 0;
#X connect 14 0 12 0;
#X connect 15 0 16 0;
#X connect 16 0 26 0;
#X connect 17 0 22 0;
#X connect 17 1 14 0;
#X connect 18 0 19 0;
#X connect 20 0 5 1;
#X connect 21 0 18 1;
#X connect 22 0 29 0;
#X connect 22 1 24 0;
#X connect 23 0 31 0;
#X connect 24 0 9 0;
#X connect 26 0 25 0;
#X connect 27 0 1 0;
#X connect 28 0 11 0;
#X connect 29 0 18 0;
#X connect 29 1 20 0;
#X connect 29 2 30 0;
#X connect 30 0 10 0;
#X connect 31 0 32 0;
#X connect 32 0 9 0;
#X connect 32 0 24 1;
#X connect 33 0 34 0;
#X connect 34 0 37 0;
#X connect 35 0 36 0;
#X connect 36 0 34 0;
#X connect 36 1 34 1;
#X connect 37 0 8 0;
#X restore 23 186 pd delay-read;
#X obj 210 160 bng 15 250 50 0 delay-clear empty c 17 7 0 12 #fcc4c4
#000000 #000000;
#X floatatom 210 130 5 50 5000 1 ms delay-deltime-set delay-deltime
0;
#X obj 280 130 tgl 15 0 delay-lfo-switch delay-lfo-switch-set LFO 17
7 0 12 #fcfcfc #000000 #000000 0 1;
#X floatatom 280 160 5 1 100 1 rate% delay-lfo-rate-set delay-lfo-rate
0;
#X floatatom 280 190 5 0 400 1 depth% delay-lfo-depth-set delay-lfo-depth
0;
#X connect 0 0 2 0;
#X connect 2 0 3 0;
#X connect 3 0 1 0;
#X coords 0 -1 1 1 170 120 1 200 100;
#X restore 127 505 pd variable-delay;
#N canvas 379 74 1198 376 capture-local-mic-signal 0;
#X obj 40 291 outlet~;
#X obj 40 51 inlet~;
#X floatatom 756 127 5 -100 12 1 local-mic-level local-mic-level-set
local-mic-level 0;
#X obj 544 130 dbtorms;
#X obj 544 154 pack f 40;
#X obj 544 178 line~;
#X obj 470 122 *~;
#X obj 470 52 inlet~;
#X obj 544 84 + 100;
#X obj 544 60 r local-mic-level;
#X obj 40 99 +~;
#X connect 1 0 10 0;
#X connect 3 0 4 0;
#X connect 4 0 5 0;
#X connect 5 0 6 1;
#X connect 6 0 10 1;
#X connect 7 0 6 0;
#X connect 8 0 3 0;
#X connect 9 0 8 0;
#X connect 10 0 0 0;
#X coords 0 -1 1 1 240 50 1 750 100;
#X restore 127 338 pd capture-local-mic-signal;
#N canvas 196 108 939 391 receive-from-previous-player 0;
#X obj 41 291 outlet~;
#X obj 41 51 inlet~;
#X text 228 26 First \, we receive audio from the previous link in
the chain and send it straight out to the local loudspeaker;
#X obj 305 160 dbtorms;
#X obj 305 184 pack f 40;
#X obj 305 208 line~;
#X obj 231 152 *~;
#X floatatom 560 130 5 -100 12 1 previous-player-level previous-player-level-set
previous-player-level 0;
#X obj 115 160 dbtorms;
#X obj 115 184 pack f 40;
#X obj 115 208 line~;
#X obj 41 152 *~;
#X floatatom 560 160 5 -100 12 1 previous-player-monitor-level previous-player-monitor-level-set
previous-player-monitor-level 0;
#X obj 231 252 outlet~;
#X obj 115 90 r previous-player-level;
#X obj 305 90 r previous-player-monitor-level;
#X obj 305 114 + 100;
#X obj 115 114 + 100;
#X connect 1 0 6 0;
#X connect 1 0 11 0;
#X connect 3 0 4 0;
#X connect 4 0 5 0;
#X connect 5 0 6 1;
#X connect 6 0 13 0;
#X connect 8 0 9 0;
#X connect 9 0 10 0;
#X connect 10 0 11 1;
#X connect 11 0 0 0;
#X connect 14 0 17 0;
#X connect 15 0 16 0;
#X connect 16 0 3 0;
#X connect 17 0 8 0;
#X coords 0 -1 1 1 300 85 1 550 100;
#X restore 127 115 pd receive-from-previous-player;
#X obj 420 221 dac~ 1;
#X obj 360 271 adc~ 1;
#X obj 380 311 vumeter;
#N canvas 476 131 569 499 limiter 0;
#N canvas 0 50 450 250 (subpatch) 0;
#X array \$0-dynamic-curve 102 float 3;
#A 0 0 1 2 3 4 5 6 7 8 9 10 11 12 13 14 15 16 17 18 19 20 21 22 23
24 25 26 27 28 29 30 31 32 33 34 35 36 37 38 39 40 41 42 43 44 45 46
47 48 49 50 51 52 53 54 55 56 57 58 59 60 61 62 63 64 65 66 67 68 69
70 71 72 73 74 75 76 77 78 79 80 81 82 83 84 85 86 87 88 89 89.95 90.8
91.55 92.2 92.75 93.2 93.55 93.8 93.95 94 94 94;
#X coords 0 100 102 0 202 200 1 0 0;
#X restore 304 50 graph;
#N canvas 557 23 760 864 parameters 0;
#X obj 367 19 inlet;
#X obj 490 150 s \$0-speed;
#X obj 367 289 s \$0-limit;
#X obj 391 265 s \$0-knee;
#X obj 416 241 s \$0-boost;
#X obj 440 214 s \$0-ratio;
#X obj 367 124 unpack 0 0 0 0 0 0;
#X obj 465 183 s \$0-thresh;
#X obj 50 84 r \$0-limit;
#X obj 58 107 r \$0-knee;
#X obj 66 130 r \$0-boost;
#X obj 82 174 r \$0-thresh;
#X obj 75 152 r \$0-ratio;
#X obj 50 210 b;
#X obj 50 235 del 0;
#X obj 50 260 t b b;
#X obj 50 310 until;
#X obj 108 337 + 1;
#X msg 99 307 0;
#X obj 117 807 tabwrite \$0-dynamic-curve, f 52;
#X obj 498 565 moses;
#X obj 569 515 r \$0-thresh;
#X obj 631 552 r \$0-ratio;
#X obj 631 579 f;
#X obj 631 604 / 100;
#X obj 117 753 +;
#X msg 530 591 0;
#X obj 508 658 expr ($f1-$f2)*$f3;
#X obj 117 778 max 0;
#X obj 631 629 - 1;
#X obj 50 430 +;
#X obj 68 403 r \$0-boost;
#X obj 138 432 r \$0-limit;
#X obj 120 465 f;
#X obj 138 490 -;
#X obj 50 465 t f b;
#X obj 292 419 r \$0-knee;
#X obj 203 558 +;
#X obj 82 532 -;
#X obj 50 559 moses;
#X obj 117 589 moses;
#X obj 144 653 b;
#X obj 380 586 r \$0-limit;
#X obj 164 686 f;
#X obj 117 621 expr $f4 - ($f2-$f1)*($f2-$f1)/(4*$f3);
#X obj 72 600 +;
#X msg 50 285 102;
#X obj 292 444 f;
#X obj 292 469 / 2;
#X obj 396 66 loadbang;
#X msg 396 91 100 0 0 100 0 50;
#X obj 156 465 r \$0-boost;
#X obj 107 557 r \$0-boost;
#X obj 50 368 trigger float float, f 61;
#X obj 182 652 r \$0-limit;
#X obj 50 335 float;
#X obj 220 137 setctl \$0-ratio;
#X obj 220 162 setctl \$0-thresh;
#X obj 220 187 setctl \$0-speed;
#X obj 220 213 setctl \$0-limit;
#X obj 220 237 setctl \$0-knee;
#X obj 220 262 setctl \$0-boost;
#X connect 0 0 6 0;
#X connect 6 0 2 0;
#X connect 6 1 3 0;
#X connect 6 2 4 0;
#X connect 6 3 5 0;
#X connect 6 4 7 0;
#X connect 6 5 1 0;
#X connect 8 0 13 0;
#X connect 9 0 13 0;
#X connect 10 0 13 0;
#X connect 11 0 13 0;
#X connect 12 0 13 0;
#X connect 13 0 14 0;
#X connect 14 0 15 0;
#X connect 15 0 46 0;
#X connect 15 1 18 0;
#X connect 16 0 55 0;
#X connect 17 0 55 1;
#X connect 18 0 55 1;
#X connect 20 0 27 0;
#X connect 20 1 26 0;
#X connect 21 0 20 1;
#X connect 21 0 27 1;
#X connect 22 0 23 0;
#X connect 23 0 24 0;
#X connect 24 0 29 0;
#X connect 25 0 28 0;
#X connect 26 0 25 1;
#X connect 27 0 25 1;
#X connect 28 0 19 0;
#X connect 29 0 27 2;
#X connect 30 0 35 0;
#X connect 31 0 30 1;
#X connect 32 0 33 1;
#X connect 33 0 34 0;
#X connect 34 0 37 0;
#X connect 34 0 38 0;
#X connect 35 0 39 0;
#X connect 35 1 33 0;
#X connect 36 0 47 0;
#X connect 37 0 40 1;
#X connect 37 0 44 1;
#X connect 38 0 39 1;
#X connect 39 0 45 0;
#X connect 39 1 40 0;
#X connect 40 0 44 0;
#X connect 40 1 41 0;
#X connect 41 0 43 0;
#X connect 42 0 44 3;
#X connect 43 0 25 0;
#X connect 44 0 25 0;
#X connect 45 0 25 0;
#X connect 46 0 16 0;
#X connect 47 0 48 0;
#X connect 48 0 38 1;
#X connect 48 0 37 1;
#X connect 48 0 44 2;
#X connect 49 0 50 0;
#X connect 50 0 6 0;
#X connect 51 0 34 1;
#X connect 52 0 45 1;
#X connect 53 0 30 0;
#X connect 53 1 19 1;
#X connect 53 1 20 0;
#X connect 54 0 43 1;
#X connect 55 0 17 0;
#X connect 55 0 53 0;
#X restore 96 433 pd parameters;
#X floatatom 250 80 3 0 100 0 limit #0-limit-set #0-limit 0;
#X floatatom 250 101 3 0 20 0 knee #0-knee-set #0-knee 0;
#X floatatom 250 122 3 0 50 0 boost #0-boost-set #0-boost 0;
#X floatatom 250 143 3 0 200 0 ratio #0-ratio-set #0-ratio 0;
#X floatatom 250 165 3 0 100 0 thresh #0-thresh-set #0-thresh 0;
#X floatatom 250 186 3 0 200 0 speed #0-speed-set #0-speed 0;
#N canvas 426 129 503 643 run-compander 0;
#X obj 47 20 inlet~;
#X obj 83 174 slop~ 0 0 0 0 1e+09;
#X obj 161 82 r \$0-speed;
#X obj 161 107 f;
#X obj 161 132 / 10;
#X obj 83 142 abs~;
#X obj 97 278 tabread4~ \$0-dynamic-curve;
#X obj 65 328 -~;
#X obj 65 353 +~ 100;
#X obj 65 378 dbtorms~;
#X obj 83 246 rmstodb~;
#X obj 47 428 *~;
#X obj 47 563 outlet~;
#X text 241 168 same envelope follower as in the peak meter example
, f 26;
#X text 130 322 "correct" the level by applying a gain calculated from
the difference between the measured and desired level, f 27;
#X connect 0 0 5 0;
#X connect 0 0 11 0;
#X connect 1 0 10 0;
#X connect 2 0 3 0;
#X connect 3 0 4 0;
#X connect 4 0 1 3;
#X connect 5 0 1 0;
#X connect 6 0 7 0;
#X connect 7 0 8 0;
#X connect 8 0 9 0;
#X connect 9 0 11 1;
#X connect 10 0 7 1;
#X connect 10 0 6 0;
#X connect 11 0 12 0;
#X restore 58 122 pd run-compander;
#X msg 107 297 100 0 0 200 100 100;
#X msg 157 391 100 0 0 100 0 50;
#X text 278 390 no change;
#X text 220 271 limit;
#X text 249 295 expand;
#X text 249 328 compress;
#X text 253 364 noise gate;
#X msg 127 365 100 0 0 200 60 30;
#X msg 117 328 100 0 0 50 100 100;
#X obj 58 62 inlet~;
#X obj 58 182 outlet~;
#X obj 97 230 loadbang;
#X msg 97 270 94 10 0 100 0 50;
#X connect 8 0 19 0;
#X connect 9 0 1 0;
#X connect 10 0 1 0;
#X connect 16 0 1 0;
#X connect 17 0 1 0;
#X connect 18 0 8 0;
#X connect 20 0 21 0;
#X connect 21 0 1 0;
#X restore 127 644 pd limiter;
#X text 210 644 << limit to -6dB to help prevent saturation in the
feedback loop, f 66;
#X text 477 219 << route this signal (pure_data:output1) to your local
loudspeaker, f 40;
#X text 124 696 Route this signal (pure_data:output2) to the next player's
JackTrip send, f 39;
#X obj 127 429 rvb-module;
#X text 417 269 << route your microphone signal to this input of Pd
(pure_data:input1), f 39;
#X text 124 16 Route the previous player's JackTrip receive to this
input of Pd (pure_data:input2), f 45;
#X obj 127 55 adc~ 2;
#X connect 3 0 9 0;
#X connect 4 0 13 0;
#X connect 5 0 4 0;
#X connect 5 1 6 0;
#X connect 7 0 8 0;
#X connect 7 0 4 1;
#X connect 9 0 0 0;
#X connect 13 0 3 0;
#X connect 16 0 5 0;
#X connect 16 0 2 0;
