#N canvas 422 200 1114 682 12;
#X obj 262 285 / 100;
#X obj 262 336 cos;
#X obj 262 306 * 1.5708;
#X text 331 305 pi/2 to get from 1 down to 0;
#X obj 422 374 t b f;
#X obj 422 416 -;
#X msg 422 395 1;
#X obj 262 377 max 0;
#X text 271 521 This nonlinear mapping of dry/wet favors the dry side
\, so you have to push into the 70% range to get a lot of reverb,
f 31;
#X obj 37 146 inlet~;
#X obj 37 290 *~;
#X obj 37 434 +~;
#X obj 37 488 outlet~;
#X obj 262 471 pack f 40;
#X obj 262 495 line~;
#X obj 127 290 *~;
#X obj 422 471 pack f 40;
#X obj 422 495 line~;
#X obj 204 88 bng 15 250 50 0 empty empty IR 17 7 0 12 #fcc4c4 #000000
#000000;
#X obj 207 68 hsl 160 15 0 100 0 0 empty empty dry-wet 8 8 0 10 #fcfcfc
#000000 #000000 0 1;
#X obj 721 315 soundfiler;
#X obj 721 346 t b;
#X obj 721 371 f \$0;
#X obj 127 209 convolve~ 1024;
#X obj 600 137 openpanel;
#X msg 721 112 symbol ../IRs/P037-Cavern.wav;
#X obj 721 57 loadbang;
#X listbox 254 88 20 0 0 0 - - - 0;
#X obj 600 190 file splitname;
#X obj 600 264 file splitext;
#X obj 600 214 list split 1;
#X obj 600 288 list split 1;
#X obj 127 233 *~ 0.5;
#X obj 882 337 table \$0-impulse-response-0;
#X obj 882 367 table \$0-impulse-response-1;
#X msg 721 291 read -resize \$1 \$2-impulse-response-\$3;
#X obj 721 235 pack s \$0 f;
#X obj 811 176 f;
#X obj 851 160 + 1;
#X obj 851 184 % 2;
#X obj 819 211 tgl 15 0 empty empty empty 17 7 0 10 #fcfcfc #000000
#000000 0 1;
#X obj 721 81 t b b;
#X obj 600 87 bng 15 250 50 0 empty empty empty 17 7 0 10 #fcfcfc #000000
#000000;
#X obj 600 107 t b b;
#X msg 721 435 analyze \$1-impulse-response-\$2;
#X obj 721 395 pack f f;
#X obj 41 25 loadbang;
#X msg 41 49 30;
#X connect 0 0 2 0;
#X connect 1 0 7 0;
#X connect 2 0 1 0;
#X connect 4 0 6 0;
#X connect 4 1 5 1;
#X connect 5 0 16 0;
#X connect 6 0 5 0;
#X connect 7 0 4 0;
#X connect 7 0 13 0;
#X connect 9 0 10 0;
#X connect 9 0 23 0;
#X connect 10 0 11 0;
#X connect 11 0 12 0;
#X connect 13 0 14 0;
#X connect 14 0 10 1;
#X connect 15 0 11 1;
#X connect 16 0 17 0;
#X connect 17 0 15 1;
#X connect 18 0 43 0;
#X connect 19 0 0 0;
#X connect 20 0 21 0;
#X connect 21 0 22 0;
#X connect 22 0 45 0;
#X connect 23 0 32 0;
#X connect 24 0 28 0;
#X connect 24 0 36 0;
#X connect 25 0 28 0;
#X connect 25 0 36 0;
#X connect 26 0 41 0;
#X connect 28 0 30 0;
#X connect 29 0 31 0;
#X connect 30 1 29 0;
#X connect 31 0 27 0;
#X connect 32 0 15 0;
#X connect 35 0 20 0;
#X connect 36 0 35 0;
#X connect 37 0 38 0;
#X connect 37 0 36 2;
#X connect 37 0 40 0;
#X connect 37 0 45 1;
#X connect 38 0 39 0;
#X connect 39 0 37 1;
#X connect 41 0 25 0;
#X connect 41 1 37 0;
#X connect 42 0 43 0;
#X connect 43 0 24 0;
#X connect 43 1 37 0;
#X connect 44 0 23 0;
#X connect 45 0 44 0;
#X connect 46 0 47 0;
#X connect 47 0 19 0;
#X coords 0 -1 1 1 220 60 1 200 50;
