#N canvas 394 270 1114 682 12;
#X obj 415 343 / 100;
#X obj 437 413 t b f;
#X obj 437 455 -;
#X msg 437 434 1;
#X obj 415 380 max 0;
#X obj 37 96 inlet~;
#X obj 37 460 *~;
#X obj 37 504 +~;
#X obj 37 558 outlet~;
#X obj 82 391 pack f 40;
#X obj 82 415 line~;
#X obj 127 460 *~;
#X obj 192 391 pack f 40;
#X obj 192 415 line~;
#X obj 204 88 bng 15 250 50 0 empty empty IR 17 7 0 12 #fcc4c4 #000000
#000000;
#X obj 207 68 hsl 160 15 0 100 0 0 reverb-dry-wet reverb-dry-wet-set
dry-wet-% 8 8 0 12 #fcfcfc #000000 #000000 0 1;
#X obj 721 315 soundfiler;
#X obj 721 346 t b;
#X obj 721 371 f \$0;
#X obj 127 159 convolve~ 1024;
#X obj 311 135 openpanel;
#X listbox 254 88 20 0 0 0 - ir-filename-set ir-filename 0;
#X obj 573 152 file splitname;
#X obj 573 206 file splitext;
#X obj 573 176 list split 1;
#X obj 573 230 list split 1;
#X obj 882 337 table \$0-impulse-response-0;
#X obj 882 367 table \$0-impulse-response-1;
#X msg 721 291 read -resize \$1 \$2-impulse-response-\$3;
#X obj 721 235 pack s \$0 f;
#X obj 811 176 f;
#X obj 851 160 + 1;
#X obj 851 184 % 2;
#X obj 819 211 tgl 15 0 empty empty empty 17 7 0 10 #fcfcfc #000000
#000000 0 1;
#X msg 721 435 analyze \$1-impulse-response-\$2;
#X obj 721 395 pack f f;
#X obj 127 183 *~;
#X obj 174 200 loadbang;
#X obj 174 248 + 100;
#X obj 174 272 dbtorms;
#X obj 415 283 r reverb-dry-wet;
#X obj 82 303 r reverb-dry;
#X obj 192 303 r reverb-wet;
#X obj 82 335 + 100;
#X obj 82 359 dbtorms;
#X obj 192 335 + 100;
#X obj 192 359 dbtorms;
#X floatatom 416 56 7 -100 12 1 dry reverb-dry-set reverb-dry 0;
#X floatatom 416 86 7 -100 12 1 wet reverb-wet-set reverb-wet 0;
#X floatatom 211 462 10 0 0 0 - - - 0;
#X floatatom 181 502 10 0 0 0 - - - 0;
#X obj 437 479 rmstodb;
#X obj 437 503 - 100;
#X obj 377 479 rmstodb;
#X obj 377 503 - 100;
#X floatatom 425 307 5 0 0 0 - - - 0;
#X obj 437 559 s reverb-dry-set;
#X obj 415 594 s reverb-wet-set;
#X msg 174 224 -18;
#X obj 573 254 s ir-filename-set;
#X obj 311 161 s ir-full-path;
#X obj 721 57 r ir-full-path;
#X obj 721 81 t s b;
#X connect 0 0 4 0;
#X connect 1 0 3 0;
#X connect 1 1 2 1;
#X connect 2 0 51 0;
#X connect 3 0 2 0;
#X connect 4 0 1 0;
#X connect 4 0 53 0;
#X connect 5 0 6 0;
#X connect 5 0 19 0;
#X connect 6 0 7 0;
#X connect 7 0 8 0;
#X connect 9 0 10 0;
#X connect 10 0 6 1;
#X connect 11 0 7 1;
#X connect 12 0 13 0;
#X connect 13 0 11 1;
#X connect 14 0 20 0;
#X connect 16 0 17 0;
#X connect 17 0 18 0;
#X connect 18 0 35 0;
#X connect 19 0 36 0;
#X connect 20 0 60 0;
#X connect 22 0 24 0;
#X connect 23 0 25 0;
#X connect 24 1 23 0;
#X connect 25 0 59 0;
#X connect 28 0 16 0;
#X connect 29 0 28 0;
#X connect 30 0 31 0;
#X connect 30 0 29 2;
#X connect 30 0 33 0;
#X connect 30 0 35 1;
#X connect 31 0 32 0;
#X connect 32 0 30 1;
#X connect 34 0 19 0;
#X connect 35 0 34 0;
#X connect 36 0 11 0;
#X connect 37 0 58 0;
#X connect 38 0 39 0;
#X connect 39 0 36 1;
#X connect 40 0 55 0;
#X connect 40 0 0 0;
#X connect 41 0 43 0;
#X connect 42 0 45 0;
#X connect 43 0 44 0;
#X connect 44 0 9 0;
#X connect 44 0 50 0;
#X connect 45 0 46 0;
#X connect 46 0 12 0;
#X connect 46 0 49 0;
#X connect 51 0 52 0;
#X connect 52 0 56 0;
#X connect 53 0 54 0;
#X connect 54 0 57 0;
#X connect 58 0 38 0;
#X connect 61 0 62 0;
#X connect 62 0 29 0;
#X connect 62 0 22 0;
#X connect 62 1 30 0;
#X coords 0 -1 1 1 300 60 1 200 50;
