#N canvas 422 229 715 446 12;
#X obj 232 105 / 100;
#X obj 232 156 cos;
#X obj 232 126 * 1.5708;
#X text 301 125 pi/2 to get from 1 down to 0;
#X obj 392 194 t b f;
#X obj 392 236 -;
#X msg 392 215 1;
#X obj 232 197 max 0;
#X text 241 341 This nonlinear mapping of dry/wet favors the dry side
\, so you have to push into the 70% range to get a lot of reverb;
#X obj 37 96 inlet~;
#X obj 37 200 *~;
#X obj 37 344 +~;
#X obj 37 398 outlet~;
#X obj 232 291 pack f 40;
#X obj 232 315 line~;
#X obj 127 200 *~;
#X obj 392 291 pack f 40;
#X obj 392 315 line~;
#X obj 127 159 rev1~;
#X floatatom 204 38 5 0 100 1 rvb - -;
#X obj 274 38 bng 15 250 50 0 empty empty empty 17 7 0 10 -261234 -1
-1;
#X obj 207 18 hsl 80 15 0 100 0 0 empty empty dry-wet 8 8 0 10 -262144
-1 -1 0 1;
#X obj 470 29 loadbang;
#X msg 470 53 0 70;
#X obj 470 77 unpack f f;
#X connect 0 0 2 0;
#X connect 1 0 7 0;
#X connect 2 0 1 0;
#X connect 4 0 6 0;
#X connect 4 1 5 1;
#X connect 5 0 16 0;
#X connect 6 0 5 0;
#X connect 7 0 4 0;
#X connect 7 0 13 0;
#X connect 9 0 10 0;
#X connect 9 0 18 0;
#X connect 10 0 11 0;
#X connect 11 0 12 0;
#X connect 13 0 14 0;
#X connect 14 0 10 1;
#X connect 15 0 11 1;
#X connect 16 0 17 0;
#X connect 17 0 15 1;
#X connect 18 0 15 0;
#X connect 19 0 18 1;
#X connect 20 0 18 2;
#X connect 21 0 0 0;
#X connect 22 0 23 0;
#X connect 23 0 24 0;
#X connect 24 0 21 0;
#X connect 24 1 19 0;
#X coords 0 -1 1 1 94 60 1 200 0;
